# xmcd
#
# Track frame offsets: 
#        150
#        11195
#        21808
#        33825
#        46800
#        60280
#        72883
#        84360
#        95723
#        107460
#        119148
#        129270
#        141058
#        152598
#        165990
#        180350
#        191343
#        202103
#        213455
#        223780
#        236310
#        248860
#
# Disc length: 3496 seconds
#
# Revision: 2
# Processed by: cddbd v1.5.2PL0 Copyright (c) Steve Scherf et al.
# Submitted via: ExactAudioCopy v1.1
#
DISCID=230da616
DTITLE=Various Artist - Jumpin' The Blues (Ace)
DYEAR=1990
DGENRE=Jump Blues
TTITLE0=Stomp Gordon - Damp Rag (mono)
TTITLE1=Margie Day - Take Out Your False Teeth, Daddy (mono)
TTITLE2=Willie Brown - Cadillac Boogie (mono)
TTITLE3=Harold Burrage - Hi-Yo Silver (mono)
TTITLE4=Cecil Payne - Block Buster Boogie (mono)
TTITLE5=Stomp Gordon - Fat Mama Blues (mono)
TTITLE6=Doles Dickens - We're Gonna Rock This Morning (mono)
TTITLE7=Tiny Davis and Her Orchestra - How About That Jive (mono)
TTITLE8=James Von Streeter and His Wig Poppers - Chit'lins (mono)
TTITLE9=Zilla Mays and The Blues Caravan - Nightshift Blues (mono)
TTITLE10=Big Bob Dougherty and Orchestra - Big Bob's Boogie (mono)
TTITLE11=Tiny Davis and Her Orchestra - Race Horse (mono)
TTITLE12=Waymon Brown - The Six Hundred Block (mono)
TTITLE13=Joey Thomas - Hobo Boogie (mono)
TTITLE14=Cecil Gant - Rock Little Baby (mono)
TTITLE15=Johnnie Brown - I'm Gonna Stop (Foolin' Around) (mono)
TTITLE16=Goree Carter - I'm Your Boogie Man (mono)
TTITLE17=Goree Carter - I've Got News for You (mono)
TTITLE18=Willie Brown - Easter Bunny Boogie (mono)
TTITLE19=John Godfrey Trio - Yes Ya Do (mono)
TTITLE20=Connie Jordan - I'm Gonna Rock (Till My Rocker Breaks Down) (
TTITLE20=mono)
TTITLE21=Eunice Davis - Work, Daddy, Work (mono)
EXTD=YEAR: 1990 ID3G: 0
EXTT0=
EXTT1=
EXTT2=
EXTT3=
EXTT4=
EXTT5=
EXTT6=
EXTT7=
EXTT8=
EXTT9=
EXTT10=
EXTT11=
EXTT12=
EXTT13=
EXTT14=
EXTT15=
EXTT16=
EXTT17=
EXTT18=
EXTT19=
EXTT20=
EXTT21=
PLAYORDER=
